<svg width="21" height="20" viewBox="0 0 21 20" fill="none" xmlns="http://www.w3.org/2000/svg">
<path d="M8.28083 8C8.28083 7.80222 8.22218 7.60888 8.1123 7.44443C8.00241 7.27998 7.84624 7.15181 7.66351 7.07612C7.48078 7.00043 7.27972 6.98063 7.08574 7.01921C6.89176 7.0578 6.71357 7.15304 6.57372 7.29289C6.43387 7.43274 6.33863 7.61093 6.30004 7.80491C6.26146 7.99889 6.28126 8.19996 6.35695 8.38268C6.43263 8.56541 6.56081 8.72159 6.72526 8.83147C6.8897 8.94135 7.08305 9 7.28083 9C7.54604 9 7.8004 8.89464 7.98793 8.70711C8.17547 8.51957 8.28083 8.26522 8.28083 8ZM12.7808 12.06C12.6673 11.9935 12.5417 11.95 12.4114 11.9321C12.281 11.9142 12.1484 11.9222 12.0211 11.9556C11.8938 11.9891 11.7744 12.0473 11.6697 12.127C11.565 12.2067 11.477 12.3062 11.4108 12.42C11.2973 12.6196 11.1329 12.7856 10.9345 12.901C10.736 13.0165 10.5104 13.0773 10.2808 13.0773C10.0512 13.0773 9.82569 13.0165 9.6272 12.901C9.42872 12.7856 9.26435 12.6196 9.15083 12.42C9.08466 12.3062 8.9967 12.2067 8.89198 12.127C8.78725 12.0473 8.66783 11.9891 8.54056 11.9556C8.41328 11.9222 8.28066 11.9142 8.15029 11.9321C8.01992 11.95 7.89436 11.9935 7.78083 12.06C7.55209 12.1919 7.38482 12.4089 7.3155 12.6637C7.24619 12.9185 7.28045 13.1904 7.41083 13.42C7.70087 13.9248 8.11893 14.3442 8.62283 14.6358C9.12673 14.9274 9.69863 15.081 10.2808 15.081C10.863 15.081 11.4349 14.9274 11.9388 14.6358C12.4427 14.3442 12.8608 13.9248 13.1508 13.42C13.2812 13.1904 13.3155 12.9185 13.2461 12.6637C13.1768 12.4089 13.0096 12.1919 12.7808 12.06ZM13.2808 7C13.083 7 12.8897 7.05865 12.7253 7.16853C12.5608 7.27841 12.4326 7.43459 12.3569 7.61732C12.2813 7.80004 12.2615 8.00111 12.3 8.19509C12.3386 8.38907 12.4339 8.56725 12.5737 8.70711C12.7136 8.84696 12.8918 8.9422 13.0857 8.98078C13.2797 9.01937 13.4808 8.99957 13.6635 8.92388C13.8462 8.84819 14.0024 8.72002 14.1123 8.55557C14.2222 8.39112 14.2808 8.19778 14.2808 8C14.2808 7.73478 14.1755 7.48043 13.9879 7.29289C13.8004 7.10536 13.546 7 13.2808 7ZM10.2808 0C8.30301 0 6.36962 0.58649 4.72512 1.6853C3.08063 2.78412 1.79891 4.3459 1.04203 6.17316C0.285156 8.00043 0.0871223 10.0111 0.472974 11.9509C0.858827 13.8907 1.81123 15.6725 3.20976 17.0711C4.60828 18.4696 6.39011 19.422 8.32992 19.8079C10.2697 20.1937 12.2804 19.9957 14.1077 19.2388C15.9349 18.4819 17.4967 17.2002 18.5955 15.5557C19.6943 13.9112 20.2808 11.9778 20.2808 10C20.2808 8.68678 20.0222 7.38642 19.5196 6.17316C19.0171 4.95991 18.2805 3.85752 17.3519 2.92893C16.4233 2.00035 15.3209 1.26375 14.1077 0.761205C12.8944 0.258658 11.594 0 10.2808 0ZM10.2808 18C8.41814 18.008 6.61103 17.3658 5.17114 16.1842C3.73125 15.0025 2.74885 13.3554 2.39334 11.5269C2.03784 9.69843 2.33153 7.80322 3.22376 6.16811C4.11598 4.53299 5.55082 3.26047 7.28083 2.57C7.27054 2.71315 7.27054 2.85685 7.28083 3C7.28083 3.79565 7.5969 4.55871 8.15951 5.12132C8.72211 5.68393 9.48518 6 10.2808 6C10.546 6 10.8004 5.89464 10.9879 5.70711C11.1755 5.51957 11.2808 5.26522 11.2808 5C11.2808 4.73478 11.1755 4.48043 10.9879 4.29289C10.8004 4.10536 10.546 4 10.2808 4C10.0156 4 9.76126 3.89464 9.57372 3.70711C9.38618 3.51957 9.28083 3.26522 9.28083 3C9.28083 2.73478 9.38618 2.48043 9.57372 2.29289C9.76126 2.10536 10.0156 2 10.2808 2C12.4026 2 14.4374 2.84285 15.9377 4.34315C17.438 5.84344 18.2808 7.87827 18.2808 10C18.2808 12.1217 17.438 14.1566 15.9377 15.6569C14.4374 17.1571 12.4026 18 10.2808 18Z" fill="black"/>
</svg>
